<?xml version="1.0" encoding="utf-8"?>
<!-- Generator: Adobe Illustrator 16.0.0, SVG Export Plug-In . SVG Version: 6.00 Build 0)  -->
<!DOCTYPE svg PUBLIC "-//W3C//DTD SVG 1.1//EN" "http://www.w3.org/Graphics/SVG/1.1/DTD/svg11.dtd">
<svg version="1.1" id="Layer_2" xmlns="http://www.w3.org/2000/svg" xmlns:xlink="http://www.w3.org/1999/xlink" x="0px" y="0px"
	 width="547px" height="411px" viewBox="0 0 547 411" enable-background="new 0 0 547 411" xml:space="preserve">
<path fill="#ED1C24" d="M393.833008,251.6875c-28.8125-6.3125-28.416016-34.228516-28.416016-34.228516
	s-2.708984-30.958984,3.75-53.5l-60.375-13.625c-2.522461,13.718262-17.394531,13.147461-29.125977,13.185547
	c-11.72998-0.038086-26.602539,0.532715-29.124512-13.185547l-60.375,13.625c6.458496,22.541016,3.75,53.5,3.75,53.5
	S194.3125,245.375,165.5,251.6875C177.75,302.125,158.75,380,160,403.916992l34.25,3.5l84.979492,1.0625v0.010742l0.436523-0.005859
	l0.4375,0.005859v-0.010742l84.979492-1.0625l34.25-3.5C400.583008,380,381.583008,302.125,393.833008,251.6875z"/>
	<rect display="none" fill="#ED1C24" width="547px" height="411px"/>
</svg>
