<?xml version="1.0" encoding="utf-8"?>
<!-- Generator: Adobe Illustrator 16.0.0, SVG Export Plug-In . SVG Version: 6.00 Build 0)  -->
<!DOCTYPE svg PUBLIC "-//W3C//DTD SVG 1.1//EN" "http://www.w3.org/Graphics/SVG/1.1/DTD/svg11.dtd">
<svg version="1.1" id="Layer_2" xmlns="http://www.w3.org/2000/svg" xmlns:xlink="http://www.w3.org/1999/xlink" x="0px" y="0px"
	 width="506px" height="550px" viewBox="0 0 506 550" enable-background="new 0 0 506 550" xml:space="preserve">
<path fill="#E30613" stroke="#E30613" stroke-width="0.5" stroke-miterlimit="10" d="M232.764,467.497
	c-0.038,0.081-3.616,2.14-8.681,6.837c-3.582,3.322-9.125,9.171-15.208,14.354c-6.131,5.223-12.806,9.773-17.438,12.25
	c-18.813,10.063-40.737,11.772-39.208,30.271c0.26,3.15,2.907,5.417,5.417,7.333c2.292,1.75,3.685,1.356,3.708,3.208
	c0.063,4.933,0.274,4.232-0.75,4.167c-107.75-6.875-157.25-7.042-157.25-7.042l0.744-192.501c0,0,15.217,0.142,38.256-0.832
	c30.784-1.301,75.685-3.96,118.354-5.521c0.596-0.021,0.292,1.791,0.25,4.208c-0.022,1.272-1.009,1.471-2.292,2.375
	c-2.977,2.099-6.688,4.75-6.688,11.438c0,12.438,17.061,15.646,36.5,25.188c15.281,7.5,25.489,18.091,33.208,25.188
	c6.761,6.216,11.178,9.839,11.232,9.911c0.622,0.838-4.933-2.622-4.44,24.295C228.983,470.177,233.174,466.619,232.764,467.497z"/>
	<rect display="none" fill="#ED1C24" width="506px" height="550px"/>
</svg>
