<?xml version="1.0" encoding="utf-8"?>
<!-- Generator: Adobe Illustrator 16.0.0, SVG Export Plug-In . SVG Version: 6.00 Build 0)  -->
<!DOCTYPE svg PUBLIC "-//W3C//DTD SVG 1.1//EN" "http://www.w3.org/Graphics/SVG/1.1/DTD/svg11.dtd">
<svg version="1.1" id="Layer_2" xmlns="http://www.w3.org/2000/svg" xmlns:xlink="http://www.w3.org/1999/xlink" x="0px" y="0px"
	 width="506px" height="550px" viewBox="0 0 506 550" enable-background="new 0 0 506 550" xml:space="preserve">
<path fill="#E30613" stroke="#E30613" stroke-width="0.5" stroke-miterlimit="10" d="M388.75,319.561c0,0-77.297,0.689-80.901,0.627
	s-47.766,4.41-47.766,4.41v-21c0,0,2.538-18.758,7.975-27.137c5.437-8.378,9.604-26.71,9.604-26.71l0.028-16.752
	c5.817-0.918,10.781-1.241,15.056-1.916c25.095-3.962,26.45-4.586,37.604-5.458c1.188-0.219,14.563-0.079,22.813,2.667
	c3.906,1.301,9.88,2.25,19.031,9.552c15.475,10.865,16.558,34.906,16.558,34.906V319.561z"/>
	<rect display="none" fill="#ED1C24" width="506px" height="550px"/>
</svg>
