<?xml version="1.0" encoding="utf-8"?>
<!-- Generator: Adobe Illustrator 16.0.0, SVG Export Plug-In . SVG Version: 6.00 Build 0)  -->
<!DOCTYPE svg PUBLIC "-//W3C//DTD SVG 1.1//EN" "http://www.w3.org/Graphics/SVG/1.1/DTD/svg11.dtd">
<svg version="1.1" id="Layer_2" xmlns="http://www.w3.org/2000/svg" xmlns:xlink="http://www.w3.org/1999/xlink" x="0px" y="0px"
	 width="506px" height="550px" viewBox="0 0 506 550" enable-background="new 0 0 506 550" xml:space="preserve">
<path fill="#E30613" stroke="#E30613" stroke-width="0.5" stroke-miterlimit="10" d="M263.102,234.585
	c-0.695-0.04-11.416-1.883-22.918-7.725c-8.623-4.378-16.933-11.955-24.184-18.86c-18.375-17.5-23.313-37.375-23.313-37.375
	c-66.563,21-70.82,19.967-113.594,30.063c-50.5,9.094-50.5,9.094-75.091,11.157v76.447c0,0,35.872,2.583,86.622,13.583
	c50.216,10.885,103.189,28.416,103.189,28.416s1.769-18.874,26.717-39.947c24.802-21.76,49.281-29.031,50.713-31.844
	c-2.663-3.111-5.789-5.833-7.244-8.458C261.75,245,262.209,238.875,263.102,234.585z"/>
	<rect display="none" fill="#ED1C24" width="506px" height="550px"/>
</svg>
