<?xml version="1.0" encoding="utf-8"?>
<!-- Generator: Adobe Illustrator 16.0.0, SVG Export Plug-In . SVG Version: 6.00 Build 0)  -->
<!DOCTYPE svg PUBLIC "-//W3C//DTD SVG 1.1//EN" "http://www.w3.org/Graphics/SVG/1.1/DTD/svg11.dtd">
<svg version="1.1" id="Layer_2" xmlns="http://www.w3.org/2000/svg" xmlns:xlink="http://www.w3.org/1999/xlink" x="0px" y="0px"
	 width="506px" height="550px" viewBox="0 0 506 550" enable-background="new 0 0 506 550" xml:space="preserve">
<path fill="#E30613" stroke="#E30613" stroke-width="0.5" stroke-miterlimit="10" d="M493.578,328.895
	c0,0-77.297-0.806-80.899-0.749c-3.604,0.058-48.183-4.635-48.183-4.635l-0.031,21.001c0,0,2.93,18.914,8.356,27.3
	c5.423,8.389,9.563,26.727,9.563,26.727l0.002,16.752c5.817,0.925,10.779,1.256,15.055,1.938
	c25.088,3.999,26.441,4.626,37.595,5.514c1.185,0.222,14.562,0.102,22.817-2.633c3.904-1.295,7.941-3.009,19.043-9.523
	c14.673-10.821,16.611-34.881,16.611-34.881L493.578,328.895z"/>
	<rect display="none" fill="#ED1C24" width="506px" height="550px"/>
</svg>
