<?xml version="1.0" encoding="utf-8"?>
<!-- Generator: Adobe Illustrator 16.0.0, SVG Export Plug-In . SVG Version: 6.00 Build 0)  -->
<!DOCTYPE svg PUBLIC "-//W3C//DTD SVG 1.1//EN" "http://www.w3.org/Graphics/SVG/1.1/DTD/svg11.dtd">
<svg version="1.1" id="Layer_2" xmlns="http://www.w3.org/2000/svg" xmlns:xlink="http://www.w3.org/1999/xlink" x="0px" y="0px"
	 width="547px" height="547px" viewBox="0 0 547 547" enable-background="new 0 0 547 547" xml:space="preserve">
<path fill="#ED1C24" d="M395.5,544.604492H273.791016H152.583008v-27.166016
	c3.083496-9.583984,1.993164-39.15332,2.041504-72.500977c0.041992-29.118164,0.75-74.332031-1.375-79.166016l-2.583496-4.333984
	c25.708496-11.75,25.76123-23.1875,26.5-50.5c0.666992-24.666016,0.5-41.833008-4.791504-59.625l71.125-10.875
	c2.625,15.6875,13.875,15.0625,30.250977,14.953125C297.625,255.230957,301.125,253.25,304.166016,240.4375L375.75,251.3125
	c-5.75,17-6.03125,37.56543-5.375,59.625c0.693359,23.288086,1.041992,40.8125,27.125,50.5l-2.083008,3.479492
	C392.5,383.833008,392.279297,422.956055,393.250977,458.75c0.628906,23.19043-1.583984,43.5,2.249023,58.688477V544.604492z"/>
	<rect display="none" fill="#ED1C24" width="547px" height="547px"/>
</svg>
