<?xml version="1.0" encoding="utf-8"?>
<!-- Generator: Adobe Illustrator 16.0.0, SVG Export Plug-In . SVG Version: 6.00 Build 0)  -->
<!DOCTYPE svg PUBLIC "-//W3C//DTD SVG 1.1//EN" "http://www.w3.org/Graphics/SVG/1.1/DTD/svg11.dtd">
<svg version="1.1" id="Layer_2" xmlns="http://www.w3.org/2000/svg" xmlns:xlink="http://www.w3.org/1999/xlink" x="0px" y="0px"
	 width="871px" height="550px" viewBox="0 0 871 550" enable-background="new 0 0 871 550" xml:space="preserve">
<path fill="#E30613" stroke="#E30613" stroke-width="0.5" stroke-miterlimit="10" d="M501.247,364.235
	c16.69-20.514,16.728-20.86,24.062-27.611c11.924-10.977,45.396-17.927,45.396-17.927c-0.878-4.011-1.997-8.621,0.021-17.906
	c1.25-5.75,10.916-15.271,10.916-15.271s-13.188-7.292-29.188-15.292c-7.39-3.695-15.272-7.16-22.312-12.771
	c-34.917-27.833-45.498-44.326-48.687-48.159c-5.189-7.57-12.289-26.375-12.289-26.375s-77.692,27.116-112.764,36.401
	c-14.549,3.852-66.762,19.882-95.406,24.891c-2.709,0.474-8.688,0.063-8.688,0.063s0.967,11.281,1.729,50.854
	c-1.354,56.333-1.792,59.333-1.792,59.333s2.645,0.014,8.77-0.174c6.042-1.292,130.605,35.257,130.605,35.257l77.542,26.48
	c0.695-1.938,1.603-10.612,9.312-22.903c7.383-11.771,13.824-18.891,23.861-30.107"/>
	<rect display="none" fill="#ED1C24" width="871px" height="550px"/>
</svg>
