<?xml version="1.0" encoding="utf-8"?>
<!-- Generator: Adobe Illustrator 16.0.0, SVG Export Plug-In . SVG Version: 6.00 Build 0)  -->
<!DOCTYPE svg PUBLIC "-//W3C//DTD SVG 1.1//EN" "http://www.w3.org/Graphics/SVG/1.1/DTD/svg11.dtd">
<svg version="1.1" id="Layer_2" xmlns="http://www.w3.org/2000/svg" xmlns:xlink="http://www.w3.org/1999/xlink" x="0px" y="0px"
	 width="871px" height="550px" viewBox="0 0 871 550" enable-background="new 0 0 871 550" xml:space="preserve">
<path fill="#E30613" stroke="#E30613" stroke-width="0.5" stroke-miterlimit="10" d="M4.017,484.291c0,0,2.292-0.168,8.667,0.125
	c6.042-1.293,130.708,34.957,130.708,34.957l78.063,26.105c3.271-9.105,9.188-26.5,27.422-43.703
	c31.349-32.316,46.001-39.26,46.514-39.004c34.689-16.793,38.335-20.189,38.335-20.189c-7.438-8.875-6.958-7.85-7.708-8.791
	c-5.542-6.959-3.313-24.188-3.313-24.188l-28.188-7.938c0,0-9.5-2.625-22.688-15.625c-4.172-4.114-8.222-9.806-16.344-19.594
	c-6.182-7.45-13.385-14.719-22.26-27.322c-5.875-6.063-11.708-26.584-11.708-26.584s-78.489,28.254-113.344,36.609
	c-14.636,3.509-66.969,21.391-95.406,24.891c-2.73,0.336-8.688,0.063-8.688,0.063s0.967,11.281,1.729,50.854
	C4.454,481.291,4.017,484.291,4.017,484.291z"/>
	<rect display="none" fill="#ED1C24" width="871px" height="550px"/>
</svg>
