<?xml version="1.0" encoding="utf-8"?>
<!-- Generator: Adobe Illustrator 16.0.0, SVG Export Plug-In . SVG Version: 6.00 Build 0)  -->
<!DOCTYPE svg PUBLIC "-//W3C//DTD SVG 1.1//EN" "http://www.w3.org/Graphics/SVG/1.1/DTD/svg11.dtd">
<svg version="1.1" id="Layer_2" xmlns="http://www.w3.org/2000/svg" xmlns:xlink="http://www.w3.org/1999/xlink" x="0px" y="0px"
	 width="506px" height="550px" viewBox="0 0 506 550" enable-background="new 0 0 506 550" xml:space="preserve">
<path fill="#E30613" stroke="#E30613" stroke-width="0.5" stroke-miterlimit="10" d="M488.625,99.688
	c-0.695,0.046-11.424,1.746-22.875,7.688c-8.583,4.453-17.154,12.07-24.5,18.875c-17.271,15.998-22.672,37.281-22.672,37.281
	c-67.203-21.594-70.542-19.439-113.141-30.031c-47.75-9.875-75.188-11.5-75.188-11.5V45.75c0,0,36.834-3.375,84.917-13.75
	S418.479,4.354,418.479,4.354s5.104,20.729,27.583,39.208C464,60.583,494.417,72.167,496.533,75.465
	c-2.325,3.244-5.533,6.066-6.929,8.64C487.646,89.313,488.167,95.5,488.625,99.688z"/>
	<rect display="none" fill="#ED1C24" width="506px" height="550px"/>
</svg>
