<?xml version="1.0" encoding="utf-8"?>
<!-- Generator: Adobe Illustrator 16.0.0, SVG Export Plug-In . SVG Version: 6.00 Build 0)  -->
<!DOCTYPE svg PUBLIC "-//W3C//DTD SVG 1.1//EN" "http://www.w3.org/Graphics/SVG/1.1/DTD/svg11.dtd">
<svg version="1.1" id="Layer_2" xmlns="http://www.w3.org/2000/svg" xmlns:xlink="http://www.w3.org/1999/xlink" x="0px" y="0px"
	 width="871px" height="550px" viewBox="0 0 871 550" enable-background="new 0 0 871 550" xml:space="preserve">
<path fill="#E30613" stroke="#E30613" stroke-width="0.5" stroke-miterlimit="10" d="M310.584,189.079
	c0,0-8.289,7.029-15.709,14.087c-3.162,3.008-15.25,16.146-29.125,26.208c-13.407,9.724-29.875,15.25-47.375,25
	c-9.603,5.35-21.911,11.134-24.213,20.625c-1.143,4.708,0.079,10.44,1.275,15.25c2.104,8.458,4.256,6.353,4.281,9.156
	c0.031,3.469,0.059,4.584,0.059,4.584S96.5,296.625,88.375,296.875c-6.625-1.25-84.667-2.5-84.667-2.5l0.2-280.76L74.5,12
	l125.406-7.938L200,7.406c0,0-9.264,14.671-5.5,26.344c3.189,9.894,18.463,16.516,28.25,21.875
	c15.75,8.625,31.636,13.507,43.625,23.063c13.626,10.86,19.368,16.651,20,17.375c10.75,12.313,24.209,22.979,24.209,22.979
	s-6.084,2.333-5.209,34.989C304.375,185.5,310.584,189.079,310.584,189.079z"/>
	<rect display="none" fill="#ED1C24" width="871px" height="550px"/>
</svg>
