<?xml version="1.0" encoding="utf-8"?>
<!-- Generator: Adobe Illustrator 16.0.0, SVG Export Plug-In . SVG Version: 6.00 Build 0)  -->
<!DOCTYPE svg PUBLIC "-//W3C//DTD SVG 1.1//EN" "http://www.w3.org/Graphics/SVG/1.1/DTD/svg11.dtd">
<svg version="1.1" id="Layer_2" xmlns="http://www.w3.org/2000/svg" xmlns:xlink="http://www.w3.org/1999/xlink" x="0px" y="0px"
	 width="871px" height="550px" viewBox="0 0 871 550" enable-background="new 0 0 871 550" xml:space="preserve">
<path fill="#E30613" stroke="#E30613" stroke-width="0.5" stroke-miterlimit="10" d="M856.643,155.02c0,0-1.847,3.169-8.876,13.146
	c-2.399,3.405-7.188,11.625-12,15.75c-17.803,15.259-26.875,17-40.625,21.875c-33.375,7.875-38,15.719-38,15.719v3.573
	c0,0-57.25-3.417-74.375-5.542s-121.688-6.313-121.688-6.313l0.189-196.933c0,0,88.432-3.319,102.313-4.333
	c21.654-1.582,93.498-7.671,93.498-7.671l0.063,3.75c0,0,8,7.688,19.297,10.736c5.747,1.798,5.494,1.888,24.266,7.264l15.688,6.375
	c0,0,16.53,8.496,24.25,19.458s16.021,22.75,16.021,22.75s-15.771,10.667-19.271,16.917c-7.625,8.188-7.598,19.424-7.792,23.146
	c-0.208,3.979,2.503,17.139,8.167,24.042C847.767,150.916,856.643,155.02,856.643,155.02z"/>
	<rect display="none" fill="#ED1C24" width="871px" height="550px"/>
</svg>
